<svg width="280" height="40" viewBox="0 0 280 40" fill="none" xmlns="http://www.w3.org/2000/svg">
<path d="M56.664 28.2167C55.815 29.0722 54.9264 29.8889 54.0026 30.6651L33.4357 10.1855L44.4343 36.6259C43.3347 37.1104 42.209 37.5471 41.0598 37.9327L30.1464 11.6968V39.9587C29.5466 39.9855 28.9434 40 28.337 40L27.8223 39.9965C27.3886 39.991 26.9566 39.9779 26.5263 39.9587V11.6038L15.5791 37.9205C14.4301 37.5338 13.3046 37.0964 12.2053 36.6108L23.1846 10.2175L2.65905 30.6558C1.7358 29.8795 0.848501 29.0619 0 28.2062L28.3271 0L56.664 28.2167Z" fill="#000"/>
<path fill-rule="evenodd" clip-rule="evenodd" d="M127.381 8.39998C129.246 8.40002 130.854 8.84409 132.206 9.73229C133.584 10.6205 134.639 11.8588 135.368 13.4468C136.125 15.0349 136.503 16.8925 136.503 19.0189C136.503 21.1721 136.111 23.0563 135.328 24.6712C134.544 26.2861 133.449 27.5376 132.044 28.4258C130.638 29.3141 128.989 29.7581 127.097 29.7581C125.15 29.7581 123.529 29.3008 122.231 28.3857C121.394 27.765 120.746 26.9856 120.285 26.0494V37.6718H116.068V8.8038H120.082V12.3202C120.589 11.2658 121.372 10.403 122.434 9.73229C123.839 8.84407 125.489 8.39998 127.381 8.39998ZM126.164 11.9129C124.326 11.9129 122.853 12.5587 121.745 13.8506C120.663 15.1157 120.122 16.8788 120.122 19.1398C120.122 21.3469 120.663 23.0963 121.745 24.3882C122.853 25.6533 124.339 26.2858 126.204 26.2859C128.042 26.2859 129.502 25.6401 130.584 24.3482C131.665 23.0562 132.206 21.2798 132.206 19.0189C132.206 16.7849 131.665 15.0487 130.584 13.8106C129.502 12.5455 128.029 11.9129 126.164 11.9129Z" fill="#000"/>
<path fill-rule="evenodd" clip-rule="evenodd" d="M190.893 8.39998C192.759 8.39998 194.367 8.84411 195.718 9.73229C197.097 10.6205 198.151 11.8588 198.881 13.4468C199.638 15.0349 200.017 16.8925 200.017 19.0189C200.017 21.1721 199.625 23.0563 198.841 24.6712C198.057 26.2862 196.962 27.5376 195.556 28.4258C194.151 29.314 192.502 29.7581 190.61 29.7581C188.664 29.7581 187.041 29.3009 185.744 28.3857C184.907 27.7653 184.259 26.9863 183.798 26.0506V37.6718H179.581V8.8038H183.595V12.3214C184.101 11.2665 184.885 10.4032 185.947 9.73229C187.353 8.84417 189.001 8.39999 190.893 8.39998ZM189.677 11.9129C187.839 11.913 186.366 12.5587 185.257 13.8506C184.176 15.1157 183.636 16.8788 183.636 19.1398C183.636 21.3468 184.176 23.0963 185.257 24.3882C186.366 25.6533 187.852 26.2859 189.718 26.2859C191.556 26.2859 193.016 25.6401 194.097 24.3482C195.178 23.0562 195.718 21.2797 195.718 19.0189C195.718 16.785 195.178 15.0487 194.097 13.8106C193.016 12.5455 191.542 11.9129 189.677 11.9129Z" fill="#000"/>
<path d="M79.1712 8.39998C81.5769 8.4 83.5098 8.93861 84.9695 10.0153C86.456 11.0919 87.294 12.5991 87.4833 14.5368H83.5907C83.4285 13.568 82.9553 12.8281 82.1716 12.3167C81.4147 11.7784 80.3737 11.5091 79.0492 11.5091C77.806 11.5091 76.8465 11.7378 76.1708 12.1953C75.522 12.6259 75.1975 13.2316 75.1975 14.0122C75.1975 14.6582 75.4409 15.1968 75.9274 15.6274C76.441 16.058 77.279 16.4214 78.4412 16.7175L81.8471 17.5652C83.8204 18.0497 85.3073 18.8438 86.3075 19.9474C87.3075 21.024 87.8077 22.3294 87.8077 23.8636C87.8077 25.7208 87.0775 27.1745 85.6178 28.2242C84.1852 29.2738 82.1715 29.7988 79.5767 29.7988C76.8736 29.7988 74.7244 29.2063 73.1295 28.022C71.5348 26.8377 70.6295 25.169 70.4133 23.0158H74.3053C74.4945 24.2001 75.0354 25.1152 75.9274 25.7612C76.8465 26.3803 78.09 26.6897 79.6578 26.6897C81.0363 26.6897 82.0906 26.4473 82.8204 25.9628C83.5501 25.4784 83.915 24.7923 83.9151 23.9042C83.9151 23.2583 83.6987 22.7196 83.2662 22.289C82.8608 21.8314 82.0499 21.4544 80.8336 21.1583L77.5088 20.3913C75.4274 19.8799 73.8731 19.1264 72.8459 18.1305C71.8458 17.1077 71.3457 15.8557 71.3457 14.3753C71.3458 12.5182 72.0352 11.0649 73.4137 10.0153C74.8193 8.93864 76.7384 8.39998 79.1712 8.39998Z" fill="#000"/>
<path d="M95.8881 22.0467C95.8881 23.4732 96.2392 24.5367 96.942 25.2366C97.6448 25.9364 98.6454 26.2859 99.9429 26.2859C101.105 26.2859 102.133 26.0171 103.024 25.4788C103.943 24.9406 104.659 24.2001 105.173 23.2581C105.714 22.2891 105.984 21.1718 105.984 19.9067V8.8038H110.16V29.395H106.146V25.5526C105.481 26.7302 104.563 27.7021 103.389 28.4665C102.011 29.3547 100.429 29.7988 98.6452 29.7988C97.2667 29.7988 96.0501 29.5163 94.996 28.9511C93.9417 28.3589 93.1171 27.551 92.5225 26.5282C91.9549 25.5054 91.6711 24.3346 91.6711 23.0158V8.8038H95.8881V22.0467Z" fill="#000"/>
<path fill-rule="evenodd" clip-rule="evenodd" d="M149.933 8.39998C151.934 8.4 153.663 8.83092 155.123 9.6922C156.61 10.5266 157.745 11.6973 158.529 13.2045C159.34 14.7118 159.746 16.5019 159.746 18.5744C159.746 18.8974 159.732 19.2069 159.705 19.5029C159.705 19.7721 159.678 20.0552 159.624 20.3512H143.751C143.923 22.0847 144.456 23.4841 145.352 24.5498C146.487 25.8686 148.055 26.5281 150.055 26.5282C151.271 26.5282 152.325 26.2858 153.217 25.8013C154.109 25.2899 154.772 24.5501 155.204 23.5812H159.178C158.502 25.519 157.353 27.0399 155.732 28.1435C154.137 29.247 152.217 29.7988 149.974 29.7988C147.892 29.7988 146.054 29.341 144.459 28.4258C142.892 27.5107 141.662 26.2455 140.77 24.6305C139.878 23.0156 139.432 21.1585 139.432 19.059C139.432 16.9327 139.864 15.0755 140.729 13.4875C141.621 11.8725 142.865 10.6205 144.459 9.73229C146.054 8.84408 147.879 8.39998 149.933 8.39998ZM149.933 11.6706C148.014 11.6706 146.487 12.3301 145.352 13.649C144.56 14.5722 144.052 15.7566 143.826 17.202H155.55C155.391 15.5996 154.911 14.3346 154.11 13.4067C153.109 12.2494 151.717 11.6706 149.933 11.6706Z" fill="#000"/>
<path fill-rule="evenodd" clip-rule="evenodd" d="M222.896 8.39998C225.599 8.39998 227.626 9.03265 228.978 10.2976C230.329 11.5358 231.006 13.3665 231.006 15.789V25.4382C231.006 26.0572 231.046 26.6898 231.127 27.3358C231.208 27.9818 231.33 28.6683 231.492 29.395H227.397C227.261 28.8836 227.167 28.318 227.113 27.699C227.093 27.2501 227.081 26.7304 227.076 26.1401C226.565 27.194 225.807 28.0368 224.802 28.6681C223.558 29.4218 222.044 29.7988 220.26 29.7988C218.152 29.7988 216.476 29.2871 215.233 28.2643C213.989 27.2146 213.368 25.8016 213.368 24.0251C213.368 22.1948 214.016 20.7549 215.314 19.7051C216.638 18.6285 218.53 17.9013 220.99 17.5245L226.87 16.5832V15.6274C226.87 14.3086 226.532 13.3259 225.856 12.6799C225.207 12.007 224.166 11.6706 222.734 11.6706C221.355 11.6706 220.247 11.9399 219.409 12.4782C218.598 13.0165 218.125 13.7834 217.99 14.7791H213.976C214.165 12.8412 215.044 11.2935 216.612 10.1361C218.179 8.97883 220.274 8.39999 222.896 8.39998ZM221.639 20.3512C220.261 20.5666 219.22 20.9298 218.517 21.4412C217.841 21.9527 217.503 22.6931 217.503 23.662C217.503 24.6038 217.814 25.3169 218.436 25.8013C219.084 26.2589 220.017 26.4881 221.234 26.4881C222.855 26.4881 224.193 26.0978 225.248 25.3173C226.329 24.5367 226.87 23.5541 226.87 22.3697V19.5285L221.639 20.3512Z" fill="#000"/>
<path fill-rule="evenodd" clip-rule="evenodd" d="M270.188 8.39998C272.188 8.4 273.918 8.83091 275.377 9.6922C276.864 10.5266 277.999 11.6973 278.783 13.2045C279.594 14.7118 280 16.5019 280 18.5744C280 18.8974 279.986 19.2069 279.959 19.5029C279.959 19.7721 279.932 20.0552 279.878 20.3512H264.005C264.177 22.0846 264.711 23.4841 265.606 24.5498C266.741 25.8686 268.309 26.5282 270.309 26.5282C271.525 26.5282 272.58 26.2858 273.472 25.8013C274.364 25.2899 275.026 24.5501 275.459 23.5812H279.432C278.756 25.519 277.608 27.0399 275.986 28.1435C274.391 29.247 272.472 29.7988 270.228 29.7988C268.147 29.7988 266.309 29.341 264.714 28.4258C263.146 27.5107 261.916 26.2455 261.024 24.6305C260.132 23.0156 259.686 21.1585 259.686 19.059C259.686 16.9327 260.118 15.0755 260.983 13.4875C261.875 11.8725 263.119 10.6205 264.714 9.73229C266.309 8.84408 268.133 8.39998 270.188 8.39998ZM270.188 11.6706C268.268 11.6706 266.741 12.3301 265.606 13.649C264.814 14.5722 264.307 15.7566 264.081 17.202H275.805C275.646 15.5996 275.166 14.3346 274.364 13.4067C273.364 12.2494 271.972 11.6706 270.188 11.6706Z" fill="#000"/>
<path d="M174.52 8.39998C175.142 8.39999 175.574 8.45392 175.817 8.56151V12.5183C175.682 12.4646 175.493 12.4376 175.25 12.4376C175.007 12.4107 174.709 12.3975 174.358 12.3975C172.331 12.3975 170.803 12.9223 169.776 13.9721C168.776 15.0218 168.276 16.5827 168.276 18.6552V29.395H164.059V8.8038H168.073V12.7967C168.575 11.5181 169.305 10.5101 170.263 9.77296C171.452 8.85785 172.871 8.39998 174.52 8.39998Z" fill="#000"/>
<path d="M208.664 29.395H204.448V0.325378H208.664V29.395Z" fill="#000"/>
<path d="M248.436 8.39998C250.653 8.39998 252.396 9.0194 253.667 10.2575C254.937 11.4957 255.573 13.1374 255.573 15.183V29.395H251.396V16.1521C251.396 14.7255 251.032 13.6621 250.302 12.9622C249.599 12.2625 248.545 11.9129 247.139 11.9129C245.923 11.9129 244.841 12.1817 243.895 12.72C242.976 13.2582 242.247 13.9987 241.706 14.9407C241.192 15.8827 240.935 17.0001 240.935 18.2921V29.395H236.719V8.8038H240.733V12.7083C241.401 11.482 242.332 10.4894 243.53 9.73229C244.936 8.84409 246.571 8.40003 248.436 8.39998Z" fill="#000"/>
</svg>
